/* XPM */
static char *_a6372f306344373dbf456e4fffe39b8[] = {
/* columns rows colors chars-per-pixel */
"64 64 226 2 ",
"   c #5C4D1C",
".  c #5F511E",
"X  c #62511F",
"o  c #665622",
"O  c #6E5B21",
"+  c #715D22",
"@  c #766226",
"#  c #796526",
"$  c #7D6928",
"%  c #816B27",
"&  c #836D29",
"*  c #877029",
"=  c #8A732C",
"-  c #937A2E",
";  c #997F2F",
":  c #8F7833",
">  c #9B812F",
",  c #9E8331",
"<  c #A28631",
"1  c #A58832",
"2  c #AB8F36",
"3  c #AE9136",
"4  c #AE9138",
"5  c #B49536",
"6  c #B79837",
"7  c #BA9A37",
"8  c #B3963B",
"9  c #B6993D",
"0  c #BA9B3B",
"q  c #BFA13C",
"w  c #C09F3A",
"e  c #C4A33C",
"r  c #C9A73D",
"t  c #CDAA3E",
"y  c #D2AE3E",
"u  c #D5B13F",
"i  c #D8B23F",
"p  c #AF9444",
"a  c #B09444",
"s  c #B59A45",
"d  c #BA9D43",
"f  c #B49949",
"g  c #BA9E4A",
"h  c #BEA144",
"j  c #BCA14B",
"k  c #BDA453",
"l  c #BEA871",
"z  c #C2A344",
"x  c #C8A741",
"c  c #C7A847",
"v  c #CCAA42",
"b  c #C2A54B",
"n  c #C6A84D",
"m  c #CEAE4C",
"M  c #D1AE41",
"N  c #D6B243",
"B  c #DAB543",
"V  c #DEB844",
"C  c #D6B44B",
"Z  c #D8B54A",
"A  c #DCB94E",
"S  c #C2A651",
"D  c #C6AA52",
"F  c #CBAD53",
"G  c #C2A75A",
"H  c #C3A95A",
"J  c #CAAE59",
"K  c #CEB053",
"L  c #CEB25A",
"P  c #D3B354",
"I  c #DDBA54",
"U  c #D3B65C",
"Y  c #D6B95D",
"T  c #DABA5B",
"R  c #E3BC45",
"E  c #E5BE48",
"W  c #E1BD54",
"Q  c #E1BE5B",
"!  c #C7AE63",
"~  c #C3AB6A",
"^  c #CDB263",
"/  c #CDB46B",
"(  c #D2B662",
")  c #D5B964",
"_  c #D9BB63",
"`  c #D0B66A",
"'  c #D4BB6B",
"]  c #D9BE6B",
"[  c #C4AE75",
"{  c #C2AE7E",
"}  c #CCB473",
"|  c #CFB972",
" . c #CCB67C",
".. c #CFBA7C",
"X. c #D4BD73",
"o. c #D9BF72",
"O. c #D2BC7C",
"+. c #E1BF60",
"@. c #E6C049",
"#. c #E3C057",
"$. c #E3C15D",
"%. c #E9C75A",
"&. c #DDC162",
"*. c #DCC269",
"=. c #D2C077",
"-. c #DBC274",
";. c #D6C07B",
":. c #DCC47B",
">. c #DEC97E",
",. c #E4C362",
"<. c #E7C967",
"1. c #EAC962",
"2. c #E0C569",
"3. c #E6C96A",
"4. c #EBCD6C",
"5. c #E3C770",
"6. c #E0CA75",
"7. c #E9CE72",
"8. c #E0C77C",
"9. c #E2CB7D",
"0. c #EAD075",
"q. c #EBD37B",
"w. c #CCB982",
"e. c #C8B68D",
"r. c #CCBC8C",
"t. c #D1BC83",
"y. c #D2BE8A",
"u. c #C9BD99",
"i. c #D7C384",
"p. c #DCC683",
"a. c #DEC983",
"s. c #D5C28D",
"d. c #D9C389",
"f. c #DECA8D",
"g. c #CEC29E",
"h. c #D5C293",
"j. c #D8C693",
"k. c #D9C894",
"l. c #D5C59A",
"z. c #D8C79A",
"x. c #DACB9C",
"c. c #DED39C",
"v. c #E1CA85",
"b. c #E1CC8C",
"n. c #E5D183",
"m. c #EBD583",
"M. c #E4D28C",
"N. c #EBD789",
"B. c #ECD98D",
"V. c #E1CD92",
"C. c #E3D194",
"Z. c #E8D490",
"A. c #E6D893",
"S. c #EADA94",
"D. c #E4D29B",
"F. c #EBDD9B",
"G. c #F0E19C",
"H. c #CFC4A6",
"J. c #D3C3A3",
"K. c #D7CAA5",
"L. c #DACAA3",
"P. c #D5C9AE",
"I. c #DBCEAC",
"U. c #DFD2AF",
"Y. c #D7CBB5",
"T. c #DBCFB0",
"R. c #D7CEBC",
"E. c #D9CFBA",
"W. c #DDD1B3",
"Q. c #DED5BD",
"!. c #E5D4A2",
"~. c #E9D7A6",
"^. c #E5D9A4",
"/. c #EADDA5",
"(. c #E2D3AD",
"). c #E7DAAB",
"_. c #EADBAD",
"`. c #E1D5B5",
"'. c #E6DBB3",
"]. c #EBDEB5",
"[. c #E2D6BB",
"{. c #E5DABD",
"}. c #E9DEBB",
"|. c #EDE1A2",
" X c #EEE1AD",
".X c #ECE2B4",
"XX c #EBE1BC",
"oX c #F0E4B3",
"OX c #E4DAC4",
"+X c #E9DEC4",
"@X c #E6DECA",
"#X c #E8DFC9",
"$X c #E3DED5",
"%X c #E3DFD8",
"&X c #ECE3C3",
"*X c #ECE8C3",
"=X c #E6E2CB",
"-X c #ECE3CC",
";X c #F1E5C3",
":X c #F1E7CB",
">X c #F1E8CD",
",X c #E7E2D5",
"<X c #EBE4D3",
"1X c #EEE9D4",
"2X c #E5E1DA",
"3X c #EAE4DC",
"4X c #EDE9DB",
"5X c #F3EBD4",
"6X c #F4EDDB",
"7X c #F6F0DD",
"8X c #F8F1DE",
"9X c #EAE7E3",
"0X c #EDEAE5",
"qX c #EFEDEC",
"wX c #F2EEE4",
"eX c #F1EEEA",
"rX c #F6F2E4",
"tX c #F8F3E4",
"yX c #F5F2EB",
"uX c #F9F6EB",
"iX c #FBF8EF",
"pX c #F5F4F2",
"aX c #F9F7F3",
"sX c #FCFAF5",
"dX c #FEFEFE",
"fX c None",
/* pixels */
"fXfXfXfXfXfXfXfXfXfXfXfXfXfXfXfXfXfXfXfXfXfXfXfXfXfXfXfXfXfXfXfXfXfXfXfXfXfXfXfXfXfXfXfXfXfXfXfXfXfXfXfXfXfXfXfXfXfXfXfXfXfXfXfX",
"fXfXfXfXfXfXfXfXfXfXfXfXfXfXfXfXfXfXfXfXfXfXfXfXfXfXfXfXfXfXfXfXfXfXfXfXfXfXfXfXfXfXfXfXfXfXfXfXfXfXfXfXfXfXfXfXfXfXfXfXfXfXfXfX",
"fXfXfXfXfXfXfXfXfXfXfXfXfXfXfXfXfXfXfXfXfXfXfXfXfXfXfXfXfXfXfXfXfXfXfXfXfXfXfXfXfXfXfXfXfXfXfXfXfXfXfXfXfXfXfXfXfXfXfXfXfXfXfXfX",
"fXfXfXfXfXfXfXfXfXfXfXfXfXfXfXfXfXfXfXfXfXfXfXfXfXfXfXfXfXfXfXfXfXfXfXfXfXfXfXfXfXfXfXfXfXfXfXfXfXfXfXfXfXfXfXfXfXfXfXfXfXfXfXfX",
"fXfXfXfXfXfXfXfXfXfXfXfXfXfXfXfXfXfXfXfXfXfXfXfXfXfXfXfXfXfXfXfXfXfXfXfXfXfXfXfXfXfXfXfXfXfXfXfXfXfXfXfXfXfXfXfXfXfXfXfXfXfXfXfX",
"fXfXfXfXfXfXfXfXfXfXfXfXfXfXfXfX# s f a a a a a a a a a a a p p a p a p a a a a p p a p a f f $ fXfXfXfXfXfXfXfXfXfXfXfXfXfXfXfX",
"fXfXfXfXfXfXfXfXfXfXfXfXfXfXfXfXA %.A B N Z N N N Z N C N C B B N C B C C N C B N B N C Z A 1.W fXfXfXfXfXfXfXfXfXfXfXfXfXfXfXfX",
"fXfXfXfXfXfXfXfXfXfXfXfXfXfXfX3 N 0 5 9 7 7 9 9 9 7 7 7 7 9 9 9 7 7 7 7 9 9 0 9 7 9 7 7 9 5 7 V 9 fXfXfXfXfXfXfXfXfXfXfXfXfXfXfX",
"fXfXfXfXfXfXfXfXfXfXfXfXfXfXO N r d 9 h z z k k k b z b b G k G j z z h k k k b h z z b j f 8 e V + fXfXfXfXfXfXfXfXfXfXfXfXfXfX",
"fXfXfXfXfXfXfXfXfXfXfXfXfXfX7 u 0 d c m K ` o.;.o.' o.-.i.i.i.X.] ' ) ' ' ` ) U L L L L L D d 7 M x fXfXfXfXfXfXfXfXfXfXfXfXfXfX",
"fXfXfXfXfXfXfXfXfXfXfXfXfX& V e s c L ] !.;X:X>X5X5X7XrXtXuXtX8X5X5X5X5X:X;X;X].!.D.V.p.X.U z 7 e V = fXfXfXfXfXfXfXfXfXfXfXfXfX",
"fXfXfXfXfXfXfXfXfXfXfXfXfXr u d z L ] D.uXdXdXdXdXdXdXdXdXdXdXdXdXdXdXdXdXdXdXsXiXsXrX&X].o.F d 7 t M fXfXfXfXfXfXfXfXfXfXfXfXfX",
"fXfXfXfXfXfXfXfXfXfXfXfX> V e s F ] b.:XaXsXsXdXdXiXsXsXsXaXyXtXuXsXdXdXdXsXsXdXiXsXuX8X>Xp.( D d 0 V 1 fXfXfXfXfXfXfXfXfXfXfXfX",
"fXfXfXfXfXfXfXfXfXfXfXfXu t d b ( b.:XiXdXsXiXtX5XOXOXW.I.L.z.L.`.,XeXaXyX8XtXtXsXsXyX,XI.t.` ( k d r Z fXfXfXfXfXfXfXfXfXfXfXfX",
"fXfXfXfXfXfXfXfXfXfXfX3 V 0 d F o.].sXdXdXtX5X{.s.../ ( Y L L ^ ` t.h.L.L.`.`.@X9X,X[.l.} X./ O.^ g 0 V 9 fXfXfXfXfXfXfXfXfXfXfX",
"fXfXfXfXfXfXfXfXfXfX+ R r s n ) V.rXdXdXsX5X`.} F A I #.$.,.,.,.W I P L ( / / t.t.O.;.( 2.M.j.x.O.G 9 e E # fXfXfXfXfXfXfXfXfXfX",
"fXfXfXfXfXfXfXfXfXfXw B 0 g L :.;XdXdXdXrX{.t.*.q.q.7.3.&.Q Q ,.&.<.,.Q I I &.I &.n.>.<.N.(.,X}.f.^ d 6 B r fXfXfXfXfXfXfXfXfXfX",
"fXfXfXfXfXfXfXfXfX* R e d D _ D.uXdXdXuX-Xx.:.}.+X&X.X/.S.0.<.$.#.Q $.<.q.S.M.m.|.s.( 7.L.wXsX7X!.] n 0 w E = fXfXfXfXfXfXfXfXfX",
"fXfXfXfXfXfXfXfXfXy u 0 b U >.5XdXdXdX7X+X..j.2X9X0X4XrX1X.X/.S.N.n.B.F.c.y.i.^.u.G Q d.+XdXdXsXXX:.L h 7 M N fXfXfXfXfXfXfXfXfX",
"fXfXfXfXfXfXfXfX> R 0 g D ] ~.sXdXdXdX7X`.! e.P.U.@XrXiXsXyX0X1X-X'.`.g.l ) C.H.~ T +.L.yXdXdXdXtXD.] D s 7 R < fXfXfXfXfXfXfXfX",
"fXfXfXfXfXfXfXfXV t s n Y v.7XdXdXdXdXtX(.L ( ` _ ..+XtXpXdXaXpX4X+Xg.~ I N.Q.r.T $.o.@XdXdXdXdXdX5Xp.' k d r R o fXfXfXfXfXfXfX",
"fXfXfXfXfXfXfX5 V 0 g L o._.sXdXdXdXdXuX+Xa.%.W A U `.7XuXdXdXiX6XI.} I 4.`.R./ $.T ..wXdXdXdXdXdXdX_.i.! f 7 V 0 fXfXfXfXfXfXfX",
"fXfXfXfXfXfX+ R e d n ) p.8XdXdXdXdXdXsXrX+XF.m.m.b.{.rXaXdXdXeX`.} P %.x.$XJ.T ,.T l.pXdXdXdXdXdXdXrXD.X.n 9 w E @ fXfXfXfXfXfX",
"fXfXfXfXfXfXr N 0 j L -.].dXdXdXdXdXsXdXdXpX4XXX).{.1XqXdXpXuX-Xy.U #.] {.2XO.T ,.U I.sXdXdXdXdXdXdXdX&Xp.L d 7 N M fXfXfXfXfXfX",
"fXfXfXfXfX= R q d D ] b.uXdXdXdXdXdXdXdXdXdXsX6X6X6XrXsXsXsXeXI.^ $.$.;.2XOX/ ,.,.T U.dXdXdXdXdXdXdXdXuXV._ b 0 7 E - fXfXfXfXfX",
"fXfXfXfXfXB t 0 b U -.;XdXdXdXdXdXdXdXdXdXdXdXdXdXiXaXdXdXuX-Xh.U ,.I j.3XI.( +.,.Y W.dXdXdXdXdXdXdXdXdX].:.L g 0 t R fXfXfXfXfX",
"fXfXfXfX1 V 0 d F ] !.sXdXdXdXdXdXdXdXdXdXdXdXdXsXuXqX9X,XOXT. .T 1.T x.,Xz._ &.,.T [.dXdXdXdXdXdXdXdXdXuXC.] J f 9 V 3 fXfXfXfX",
"fXfXfXfXR e d b U p.tXdXdXdXdXdXdXdXdXdXdXdXdXdX6X`.t./ ` | [ ^ $.,.U z.+Xl.( ,.,.Y {.dXdXdXdXdXdXdXdXdXdX:Xi.' k 0 e R o fXfXfX",
"fXfXfX0 i 0 d m _ _.dXdXdXdXdXdXdXdXdXdXdXdXdXdX-Xc.A.q.,.I T _ ,.+.T h.OXl.T +.,._ {.dXdXdXdXdXdXdXdXdXdXsX_.X.J d 7 u e fXfXfX",
"fXfX# R e d c P :.7XdXdXdXdXdXdXdXdXdXdXdXdXdXdXpX4X@X'.|.0.$.,.,.,.T y.OXl._ ,.,._ U.dXdXdXdXdXdXdXdXdXdXdX6Xp.L z 7 0 E & fXfX",
"fXfXM y 0 d m U D.sXdXdXdXdXdXdXdXdXdXdXdXdXdXdXdXsXeXOXU.S.<.,.+.<.T h.OXz.T +.,.T z.uXdXdXdXdXdXdXdXdXdXdXuXb.L v 0 7 v B fXfX",
"fX; B e d z m Y ^.sXdXdXdXdXdXdXdXdXdXdXdXdXdXdXsXsXrX7X-XL.5.$.+.,.T y.OXL.) ,.,._ s.7XdXdXdXdXdXdXdXdXdXdXyXv.P m z a e V < fX",
"fX< u e 9 z m _ .XdXdXdXdXdXdXdXdXdXdXdXdXdXdXpXsXrX>X>X1X@Xd.Q ,.,.T y.@XI.T +.,.T y.6XdXdXdXdXdXdXdXdXdXdX>X-.L M g s e u 1 fX",
"fXfXe t r 0 m ' ].dXsXdXdXdXdXdXdXdXdXdXdXdXsXdXeX`.h.h.L.R.r.I ,.,.T y.9XT._ +.,.T y.rXdXdXdXdXdXdXdXdXdXdX]._ P c d x t t fXfX",
"fXfX# N M q b ' !.uXdXdXdXdXdXdXdXdXdXdXdXdXaXpX(.X._ P L ^ ~ _ <.,.T l.9XT._ ,.2.T h.pXdXdXdXdXdXdXdXdXdXdXD.T m g z t B & fXfX",
"fXfXfX7 M v g ^ a.;XdXdXdXdXdXdXdXdXdXdXdXdXdXyX'.'..XG.0.#.Q ,.+.,.T L.0XT._ ,.,.T L.aXdXdXdXdXdXdXdXdXdXtX:.U n d v u 0 fXfXfX",
"fXfXfX. u M z k | C.tXdXdXdXdXdXdXdXdXdXdXdXaXwXrX6X[.@X&XF.3.$.,.,.U x.0XI._ ,.,.T W.aXdXdXdXdXdXdXdXdXdX].) K g x t N o fXfXfX",
"fXfXfXfX< B v j F -.].dXdXdXdXdXdXdXdXdXdXdXdXsXdXdXsXpX3X=XF.<.Q ,.T L.0XK.( ,.,._ OXdXdXdXdXdXdXdXdXdXtX>.Y b d t B 2 fXfXfXfX",
"fXfXfXfXfXt M x h U v.5XdXdXdXdXdXdXdXdXdXdXdXdXdXdXdXdXdX,X(.q.,.,.T L.2Xl._ ,.$.' ,XsXdXdXdXdXdXdXdXdX_.] D g x M N fXfXfXfXfX",
"fXfXfXfXfX* V M d n -.].dXdXdXdXdXdXdXdXdXdXdXdXsXsXdXdXdXiX+Xf.1.$.T L.@Xy._ ,.Q d.eXdXdXdXdXdXdXdXdXtX>.Y b z t V - fXfXfXfXfX",
"fXfXfXfXfXfXe N r d ` V.5XdXdXdXdXdXdXdXdXdXdXdXdXdXdXdXdXiXsXU.o.%.T z.OXy._ ,.T U.yXdXdXdXsXdXdXdXsX~.] D g r u e fXfXfXfXfXfX",
"fXfXfXfXfXfX+ i y z G ;.).iXdXdXdXdXdXdXdXdXdXdXdXdXdXdXdXdXsX<Xy.W T l.Q...T %.9.eXdXsXsXdXdXdXdXdX;X:.Y j z t V # fXfXfXfXfXfX",
"fXfXfXfXfXfXfX3 V x j ^ >.;XdXdXdXdXdXdXdXdXdXdXdXdXdXdXdXdXdXqXz.I T z.W.| T 1.+XsXuXtX-XuXdXsXdX8XV.] D g t B 9 fXfXfXfXfXfXfX",
"fXfXfXfXfXfXfX  M M z k ) b.uXdXdXdXdXdXdXdXdXdXdXdXdXdXdXdXsXqXz.I _ P.J.( 1.Z.yXuX`.s.t.Q.pXdXdX.X:.L g x u N . fXfXfXfXfXfXfX",
"fXfXfXfXfXfXfXfX- V v d D ] _.dXdXdXdXdXdXiXsXdXpXaXuXuXiXuXdXqXh.I >.P. ._ N.<XaX5X..K I / qXdX7Xb.) D g t V , fXfXfXfXfXfXfXfX",
"fXfXfXfXfXfXfXfXfXe V e h L f.5XdXdXsXsX8X-XQ.I.I.I.K.W.OX3X0XY.X.5.j.e.' B.&XqXaX-X( #.$.8.sXsX_.-.L g x u t fXfXfXfXfXfXfXfXfX",
"fXfXfXfXfXfXfXfXfX% V M e n :.).rXdXsX8X`.t./ U U U ( ` ..y.t.;.M.s.{ | S.&XqXuXiX6XV.m.B.tXdX;Xb._ G h y V = fXfXfXfXfXfXfXfXfX",
"fXfXfXfXfXfXfXfXfXfX6 V e g / V.].>X6X[./ P A Q $.$.&.T I T 6.C.w.~ =.^.-XqXsXdXdXsXyX7XsXdX8XD.o.L g x B 0 fXfXfXfXfXfXfXfXfXfX",
"fXfXfXfXfXfXfXfXfXfXO N M h G ;.b._.`.w._ q.0.2.Q T ,.,.$.,.-./ ^ a._.<XqXsXdXdXdXdXdXdXdXiX_.v.) S h u N @ fXfXfXfXfXfXfXfXfXfX",
"fXfXfXfXfXfXfXfXfXfXfX1 V r g L *.b.y.X.;X>X.XF.N.0.3.$.$.$.*.9.F.'.1XsXdXdXdXdXdXsXdXsXdX>XC.-.J g t B 3 fXfXfXfXfXfXfXfXfXfXfX",
"fXfXfXfXfXfXfXfXfXfXfX  r i h b U | | f.rXsXdXsX1XXXXXoX X X.XXX+X4XdXdXdXdXdXdXdXdXsXrX>XD.8.( b z u t X fXfXfXfXfXfXfXfXfXfXfX",
"fXfXfXfXfXfXfXfXfXfXfXfX- N M 0 c L ;.j.6XdXdXdXdXdXdXdXdXdXdXdXdXdXdXdXsXsXiXiXrX6X5XXXC.>.' D g t B ; fXfXfXfXfXfXfXfXfXfXfXfX",
"fXfXfXfXfXfXfXfXfXfXfXfXfX0 V e d m ' d.!.:X5X5X5XtXuXwXrXrXtXtXtXtX6X;X_._.~._.}.'.).V.-.] K j x B e fXfXfXfXfXfXfXfXfXfXfXfXfX",
"fXfXfXfXfXfXfXfXfXfXfXfXfX% M N 0 D L ] -.-.8.8.v.b.C.f.b.v.b.b.C.D.D.b.>.a.9.b.V.b.p._ T m j h M M = fXfXfXfXfXfXfXfXfXfXfXfXfX",
"fXfXfXfXfXfXfXfXfXfXfXfXfXfX5 B x s D L K K L P ( ' ` ( U U U ` ' X.| Y ( Y _ | ' ' U K m n d v B 7 fXfXfXfXfXfXfXfXfXfXfXfXfXfX",
"fXfXfXfXfXfXfXfXfXfXfXfXfXfXO r A b f d w 0 0 d j j j h h h h j k k h h h h g k k j h 0 0 f F B t + fXfXfXfXfXfXfXfXfXfXfXfXfXfX",
"fXfXfXfXfXfXfXfXfXfXfXfXfXfXfX1 v P _ U U U U Y Y U U U U U Y Y U U U U U U Y Y U Y U U U U P M 3 fXfXfXfXfXfXfXfXfXfXfXfXfXfXfX",
"fXfXfXfXfXfXfXfXfXfXfXfXfXfXfXfXe M N Z Z Z Z Z Z Z Z Z Z Z C Z C Z C A B Z Z C Z Z Z Z Z M t t . fXfXfXfXfXfXfXfXfXfXfXfXfXfXfX",
"fXfXfXfXfXfXfXfXfXfXfXfXfXfXfXfX= 3 1 1 1 1 1 1 1 1 1 1 1 1 1 1 1 1 1 1 1 1 1 1 1 1 1 1 1 1 4 : fXfXfXfXfXfXfXfXfXfXfXfXfXfXfXfX",
"fXfXfXfXfXfXfXfXfXfXfXfXfXfXfXfXfXfXfXfXfXfXfXfXfXfXfXfXfXfXfXfXfXfXfXfXfXfXfXfXfXfXfXfXfXfXfXfXfXfXfXfXfXfXfXfXfXfXfXfXfXfXfXfX",
"fXfXfXfXfXfXfXfXfXfXfXfXfXfXfXfXfXfXfXfXfXfXfXfXfXfXfXfXfXfXfXfXfXfXfXfXfXfXfXfXfXfXfXfXfXfXfXfXfXfXfXfXfXfXfXfXfXfXfXfXfXfXfXfX",
"fXfXfXfXfXfXfXfXfXfXfXfXfXfXfXfXfXfXfXfXfXfXfXfXfXfXfXfXfXfXfXfXfXfXfXfXfXfXfXfXfXfXfXfXfXfXfXfXfXfXfXfXfXfXfXfXfXfXfXfXfXfXfXfX",
"fXfXfXfXfXfXfXfXfXfXfXfXfXfXfXfXfXfXfXfXfXfXfXfXfXfXfXfXfXfXfXfXfXfXfXfXfXfXfXfXfXfXfXfXfXfXfXfXfXfXfXfXfXfXfXfXfXfXfXfXfXfXfXfX",
"fXfXfXfXfXfXfXfXfXfXfXfXfXfXfXfXfXfXfXfXfXfXfXfXfXfXfXfXfXfXfXfXfXfXfXfXfXfXfXfXfXfXfXfXfXfXfXfXfXfXfXfXfXfXfXfXfXfXfXfXfXfXfXfX"
};
