/* XPM */
static char *_6197d9e32884a648b7374c278481f07[] = {
/* columns rows colors chars-per-pixel */
"32 32 136 2 ",
"   c #63521D",
".  c #68551E",
"X  c #675620",
"o  c #685621",
"O  c #6F5D23",
"+  c #7B6625",
"@  c #816C26",
"#  c #90772C",
"$  c #947B2D",
"%  c #927B35",
"&  c #9C8232",
"*  c #A18530",
"=  c #A68A33",
"-  c #AA8D33",
";  c #A78D3C",
":  c #A88D3C",
">  c #AE9138",
",  c #B69637",
"<  c #B69836",
"1  c #BE9E3C",
"2  c #C5A33C",
"3  c #C9A73E",
"4  c #CEAB3F",
"5  c #D1AD3F",
"6  c #A88E40",
"7  c #AF9541",
"8  c #B39843",
"9  c #BFA142",
"0  c #BFA349",
"q  c #C4A543",
"w  c #C8A742",
"e  c #CBAA44",
"r  c #C4A64B",
"t  c #C5A94E",
"y  c #CCAD4B",
"u  c #D0AD42",
"i  c #D5B243",
"p  c #DAB543",
"a  c #DEB944",
"s  c #D4B249",
"d  c #DFBB4C",
"f  c #C6AA53",
"g  c #CCAE53",
"h  c #C5AC5A",
"j  c #CBAE59",
"k  c #CEB154",
"l  c #CEB25A",
"z  c #D6B551",
"x  c #DDBB52",
"c  c #D2B55B",
"v  c #DBBB5B",
"b  c #E0BE55",
"n  c #E0BF5B",
"m  c #C7AE62",
"M  c #CDB261",
"N  c #CDB66B",
"B  c #D2B664",
"V  c #D3B865",
"C  c #DABC64",
"Z  c #D4BA6C",
"A  c #DABE6B",
"S  c #CBB675",
"D  c #CEBA79",
"F  c #D4BC75",
"G  c #D5BE79",
"H  c #E3C25C",
"J  c #DCC16D",
"K  c #DCC373",
"L  c #D4C17E",
"P  c #DCC47B",
"I  c #E2C262",
"U  c #E5C86A",
"Y  c #E3C973",
"T  c #E0C67F",
"R  c #E4CB7A",
"E  c #D6C183",
"W  c #DAC484",
"Q  c #DEC885",
"!  c #DAC58A",
"~  c #DDCA8C",
"^  c #D6C395",
"/  c #DCCB93",
"(  c #D8C69A",
")  c #DDCC9B",
"_  c #E3CB82",
"`  c #E8D182",
"'  c #E6D289",
"]  c #EBD68C",
"[  c #E3CE91",
"{  c #E5D193",
"}  c #EBD793",
"|  c #E4D39D",
" . c #DACCA0",
".. c #E4D4A3",
"X. c #E8D6A1",
"o. c #E4D5AB",
"O. c #E3D8AD",
"+. c #E9DBAB",
"@. c #E3D6B1",
"#. c #E6DAB6",
"$. c #EADCB4",
"%. c #E7DBB9",
"&. c #E8DDBD",
"*. c #EDE1BB",
"=. c #F1E3BB",
"-. c #E7DEC5",
";. c #EADFC0",
":. c #E9DFC9",
">. c #EDE3C4",
",. c #ECE3CC",
"<. c #EFE8CF",
"1. c #F3E9C5",
"2. c #F0E7CB",
"3. c #F2E9CD",
"4. c #E7E3D7",
"5. c #EBE4D3",
"6. c #EFE9D4",
"7. c #EBE7DC",
"8. c #EEE9DC",
"9. c #F4ECD4",
"0. c #F4EEDD",
"q. c #F7F1DE",
"w. c #F8F1DD",
"e. c #EDEAE6",
"r. c #F3EEE2",
"t. c #F5F1E3",
"y. c #F8F3E4",
"u. c #F6F3EB",
"i. c #FAF7ED",
"p. c #FBF8ED",
"a. c #F5F5F2",
"s. c #F9F7F2",
"d. c #FCFAF4",
"f. c #F6F8FD",
"g. c #FEFEFD",
"h. c None",
/* pixels */
"h.h.h.h.h.h.h.h.h.h.h.h.h.h.h.h.h.h.h.h.h.h.h.h.h.h.h.h.h.h.h.h.",
"h.h.h.h.h.h.h.h.% 8 ; : : : ; ; : : : : ; ; 7 6 h.h.h.h.h.h.h.h.",
"h.h.h.h.h.h.h.O a e 2 w w e w w e 2 w w 3 3 q d & h.h.h.h.h.h.h.",
"h.h.h.h.h.h.h., e q l N M M N N j j M M g j f q u h.h.h.h.h.h.h.",
"h.h.h.h.h.h.@ i r K o.=.X.$.>.+.| +.+.{ | | Q t u = h.h.h.h.h.h.",
"h.h.h.h.h.h.3 e V &.u.d.d.d.d.s.s.g.g.d.d.g.O.B r i X h.h.h.h.h.",
"h.h.h.h.h.* u f *.g.d.o.L J J C J P ! ) @.y.>.! S e 2 h.h.h.h.h.",
"h.h.h.h.  p r P d.g.>.! } R U H H H I J K K 9.y...0 p # h.h.h.h.",
"h.h.h.h.< u l y.g.d.!  .4.,.*.+.} [ ! ) E V ,.g.*.B q 4 h.h.h.h.",
"h.h.h.h.i r [ g.g.i.! B F >.u.f.7.^ L  .M P a.g.i.{ h i + h.h.h.",
"h.h.h.- u M y.g.g.g.,.] R ,.g.g.o.B { ( x [ f.g.g.y.E r 4 h.h.h.",
"h.h.  a r [ g.g.g.g.g.g.g.g.g.6.Z n #.W n  .g.g.g.g.$.f i $ h.h.",
"h.h.2 e Z y.g.g.g.g.g.y.y.<.-.( v K %.K n ) s.g.g.g.d.L r i h.h.",
"h.$ i r +.g.g.g.g.g.g.0.-.~ C B I J #.J n / r.g.g.g.d.9.m 2 2 h.",
"h.i 2 l 9.g.d.g.g.g.g.y.s.6.1.} I A #.J n ! r.g.g.g.g.9.Z 1 i + ",
"& i 9 C 0.s.g.g.g.g.g.d.g.u.t.*.H J #.J n W u.g.g.g.g.<.C q 2 3 ",
"X p 2 A y.d.g.g.g.g.g.g.>.~ ( F H K &.J n ! a.g.g.g.g.$.c q i $ ",
"h.- i m 9.g.g.g.g.g.g.a.#.[ J C I P &.A b ) g.g.g.g.u.[ t e 4 h.",
"h.h.5 y P g.g.g.g.g.g.g.0.y.>.R H T &.C n @.f.g.g.g.>.A w p o h.",
"h.h.+ p g <.g.g.g.g.g.g.g.g.u.o.I K &.C I :.p.g.g.u.[ f i - h.h.",
"h.h.h.1 y E d.d.g.g.g.g.g.g.i.<.T T $.v ` r.p.g.g.=.Z r i h.h.h.",
"h.h.h.. p j *.p.g.g.d.g.g.g.d.i.! A ^ I &.:.@.s.i.{ f p $ h.h.h.",
"h.h.h.h.2 u B 0.g.i.0.7.5.,.0.e.Q E E +.8.W z 0.9.Z t i h.h.h.h.",
"h.h.h.h.+ a t ) g.d.! C A Z E ~ G D o.s.p.X.' w.X.j p = h.h.h.h.",
"h.h.h.h.h., s N o.q.~ Y U H H K E +.u.d.g.u.r.<.N y u h.h.h.h.h.",
"h.h.h.h.h.h.i y l >.t.<.>.>.y.6.0.d.g.g.g.d.>.P t p + h.h.h.h.h.",
"h.h.h.h.h.h.$ p t W 9.d.d.g.s.d.d.g.g.0.0.+.Q g i , h.h.h.h.h.h.",
"h.h.h.h.h.h.h.3 y f c l Z Z B V F F M Z F B g w p X h.h.h.h.h.h.",
"h.h.h.h.h.h.h.@ x k s g k k y k l g y k j y y x = h.h.h.h.h.h.h.",
"h.h.h.h.h.h.h.h.> e q q q q w q q q q q q w e w h.h.h.h.h.h.h.h.",
"h.h.h.h.h.h.h.h.h.h.h.h.h.h.h.h.h.h.h.h.h.h.h.h.h.h.h.h.h.h.h.h.",
"h.h.h.h.h.h.h.h.h.h.h.h.h.h.h.h.h.h.h.h.h.h.h.h.h.h.h.h.h.h.h.h."
};
