/* XPM */
static char *_e556885bc934f19abee16cdac51a9c8[] = {
/* columns rows colors chars-per-pixel */
"16 16 175 2 ",
"   c #5D4B12",
".  c #67551B",
"X  c #8C742A",
"o  c #8D752A",
"O  c #997C27",
"+  c #907728",
"@  c #9B7F2B",
"#  c #9E8129",
"$  c #AB8D2C",
"%  c #AE9033",
"&  c #AE9034",
"*  c #B09136",
"=  c #B59637",
"-  c #B89834",
";  c #BA9A35",
":  c #BA9A38",
">  c #D1AE3D",
",  c #D1AC3F",
"<  c #BCA048",
"1  c #BFA656",
"2  c #C5A340",
"3  c #C7A641",
"4  c #CEAC43",
"5  c #CDAB44",
"6  c #CCAB46",
"7  c #C8A948",
"8  c #C9AC49",
"9  c #CEAE4D",
"0  c #D1AE47",
"q  c #D2AF48",
"w  c #D8B441",
"e  c #D2B048",
"r  c #D3B048",
"t  c #D2B049",
"y  c #D1B04A",
"u  c #D3B14A",
"i  c #D3B14B",
"p  c #D4B249",
"a  c #D5B249",
"s  c #D4B14B",
"d  c #D4B24A",
"f  c #D5B24A",
"g  c #D4B34B",
"h  c #D5B34B",
"j  c #D6B34B",
"k  c #D6B44B",
"l  c #D2B14C",
"z  c #D6B44E",
"x  c #D3B353",
"c  c #D6B651",
"v  c #D4B453",
"b  c #D6B553",
"n  c #D7B652",
"m  c #D7B755",
"M  c #D5B656",
"N  c #D8B754",
"B  c #DAB952",
"V  c #DAB956",
"C  c #DAB957",
"Z  c #D5B758",
"A  c #D6B658",
"S  c #D5B75A",
"D  c #D6B95F",
"F  c #D8B858",
"G  c #DCBB58",
"H  c #D8BB5C",
"J  c #DBBB5D",
"K  c #DDBE5F",
"L  c #D8BB62",
"P  c #D9BD61",
"I  c #DDBF65",
"U  c #DCC069",
"Y  c #DDC269",
"T  c #DCC06A",
"R  c #DFC36F",
"E  c #DEC270",
"W  c #DBC277",
"Q  c #DFC574",
"!  c #DCC47A",
"~  c #DBC47E",
"^  c #E2C469",
"/  c #E3C569",
"(  c #E4CB7C",
")  c #E6CE7E",
"_  c #DEC781",
"`  c #DFC885",
"'  c #DFCA8B",
"]  c #E1CA82",
"[  c #E0CB83",
"{  c #E2CA84",
"}  c #E4CC84",
"|  c #E1CD8E",
" . c #E2CE8F",
".. c #E3CE94",
"X. c #E4D197",
"o. c #ECD690",
"O. c #E7D69C",
"+. c #E6D49F",
"@. c #E7D69F",
"#. c #EBD798",
"$. c #ECD99E",
"%. c #ECD99F",
"&. c #F3DC91",
"*. c #E5D5A2",
"=. c #E6D5A3",
"-. c #E8D7A5",
";. c #EEDBA3",
":. c #EEDCA7",
">. c #EBDCAE",
",. c #ECDEAE",
"<. c #EADCB0",
"1. c #ECDDB0",
"2. c #E8DBB7",
"3. c #EADEB9",
"4. c #EBDFB9",
"5. c #E8DEBC",
"6. c #EFE0AD",
"7. c #F2E1AD",
"8. c #EFE3BC",
"9. c #EDE2BF",
"0. c #F0E2B5",
"q. c #F5E5B7",
"w. c #F7E7B6",
"e. c #F2E5BC",
"r. c #ECE3C7",
"t. c #EFE4C5",
"y. c #ECE4C9",
"u. c #EFE6C8",
"i. c #ECE3CE",
"p. c #EFE6CE",
"a. c #F0E5C4",
"s. c #F0E6C6",
"d. c #F2E8C5",
"f. c #F5E9C5",
"g. c #F2E7C8",
"h. c #F2E8C8",
"j. c #F1E8CB",
"k. c #F3EACF",
"l. c #F3EBD2",
"z. c #F2EAD5",
"x. c #F0EAD7",
"c. c #F5EDD6",
"v. c #F3EBD9",
"b. c #F3ECDA",
"n. c #F5EED8",
"m. c #F5EFD8",
"M. c #F5EED9",
"N. c #F6EFDA",
"B. c #F6F0D8",
"V. c #F7F1DE",
"C. c #F6F0DF",
"Z. c #F5F1E3",
"A. c #F7F3E4",
"S. c #F8F3E4",
"D. c #F8F2E6",
"F. c #F8F4EA",
"G. c #F9F4EA",
"H. c #F9F5EC",
"J. c #FCF8ED",
"K. c #FDFAEF",
"L. c #FFFAEF",
"P. c #F9F7F1",
"I. c #F9F7F4",
"U. c #FDFBF6",
"Y. c #FAFAF8",
"T. c #FDFBF9",
"R. c #FEFCF9",
"E. c #FCFDFA",
"W. c #FDFDFB",
"Q. c #FEFCFC",
"!. c #FEFDFC",
"~. c #FFFFFD",
"^. c #FEFEFE",
"/. c gray100",
"(. c None",
/* pixels */
"(.(.(.(.(.(.l l g g 1 < (.(.(.(.",
"(.(.(.: G U V m z z J B ; (.(.(.",
"(.(.O n d.k.g.a.g.c.k.#.E + (.(.",
"(.(.4 ;.[ l z g g g g g e.8 (.(.",
"(.& V L.X.D +.3.L l ~ j.L.( # (.",
"(.0 %.U.C.9.x.i.n r | G.^.0.9 (.",
"3 J B.W.^.I.r.| g g ! b.^.C.Q % ",
"> } S.^.R.I.3.8.B r W p.^.H.{ w ",
"2 I b.R.^.Y.y.[ j g ` v.^.b.^ ; ",
"(.g :.Y.b.g.F.>.g r ..S.W.,.l . ",
"(.= K L.@.P t.-., F =.z.M.) $ (.",
"(.(.0 6.8.A A A x ~ g.2.$.m   (.",
"(.(.* G 1.| U I *.A.A.>.^ @ (.(.",
"(.(.(.5 / o.f.7.#.w.w.&.6 (.(.(.",
"(.(.(.o 7 g r g l q l l o (.(.(.",
"(.(.(.(.(.(.r g g q (.(.(.(.(.(."
};
